<svg enable-background="new 0 0 7202.2 7199.3" height="7199.3" viewBox="0 0 7202.2 7199.3" width="7202.2" xmlns="http://www.w3.org/2000/svg"><g fill="#fff"><path d="m6132.008 6468.648c-417.696-17.258-656.323-238.302-972.453-472.366-273.021-202.476-674.724-284.063-1004.677-211.991-385.218 83.995-818.577 408.348-487.588 799.949 282.185 334.181 730.697 503.387 1160.138 519.39 401.586 14.907 851.153-73.013 1209.122-256.763 241.914-124.275 404.481-260.953 566.991-435.287-153.091 46.977-317.127 63.656-471.533 57.068z"/><path d="m920.645 6468.648c417.659-17.258 656.165-238.302 972.257-472.366 273.238-202.476 674.686-284.063 1004.833-211.991 385.024 83.995 818.362 408.348 487.53 799.949-282.126 334.181-730.911 503.387-1160.118 519.39-401.546 14.907-851.213-73.013-1208.985-256.763-242.071-124.275-404.794-260.953-567.246-435.287 153.093 46.977 317.129 63.656 471.729 57.068z"/><path d="m6738.048 4500.608c132.299-393.097-631.704-1001.643-945.974-949.397-571.68 99.015-3132.694-1003.554-3333.99-2116.081-1239.015-625.174-1463.521-44.068-1463.521-44.068-651.873 1265.102 2200.112 2661.757 2200.112 2661.757 3231.999 1652.217 3543.373 447.789 3543.373 447.789z"/><path d="m5803.434 3252.46c792.657-1754.46 171.779-2089.947 171.779-2089.947-220.862-253.384-691.666-143.162-691.666-143.162-709.163-935.73-1234.91-919.902-1234.91-919.902-621.154-25.159-1152.225 736.079-1387.385 1135.79 317.186 1057.053 2271.991 1911.868 3142.182 2017.221z"/><path d="m2248.519 3234.414c-546.786 0-997.72 405.462-1071.604 931.878h-636.38v1748.238h301.518l7.472-1449.61h326.709c71.94 528.599 523.949 936.335 1072.285 936.335 598.357 0 1083.42-485.061 1083.42-1083.42 0-598.357-485.064-1083.421-1083.42-1083.421zm0 1867.997c-433.307 0-784.576-351.263-784.576-784.576 0-433.307 351.27-784.576 784.576-784.576 433.313 0 784.576 351.27 784.576 784.576 0 433.313-351.263 784.576-784.576 784.576z"/><circle cx="2248.52" cy="4317.836" r="190.218"/></g></svg>