<?xml version="1.0" encoding="utf-8"?>
<!-- Generator: Adobe Illustrator 24.0.3, SVG Export Plug-In . SVG Version: 6.00 Build 0)  -->
<svg version="1.1" id="Layer_1" xmlns="http://www.w3.org/2000/svg" xmlns:xlink="http://www.w3.org/1999/xlink" x="0px" y="0px"
	 width="7202.2px" height="7199.3px" viewBox="0 0 7202.2 7199.3" style="enable-background:new 0 0 7202.2 7199.3;"
	 xml:space="preserve">
<style type="text/css">
	.st0{fill:#39606E;}
	.st1{fill:#FFFFFF;}
</style>
<g>
	<g>
		<g>
			<path class="st0" d="M3734.021,104.728c-101.954-57.601-268.019-56.264-369.033,2.971L625.766,1713.971
				c-101.014,59.234-182.891,203.505-181.948,320.602l25.6,3180.399c0.943,117.097,85.131,260.031,187.085,317.631
				l2764.725,1561.969c101.954,57.6,268.019,56.264,369.033-2.971l2739.222-1606.272c101.014-59.234,182.89-203.505,181.948-320.602
				l-25.601-3180.399c-0.942-117.097-85.131-260.031-187.085-317.631L3734.021,104.728z"/>
		</g>
	</g>
</g>
<g>
	<g>
		<path class="st1" d="M5192.847,5296.75c-265.837-10.984-417.708-151.664-618.904-300.631
			c-173.761-128.863-429.419-180.788-639.413-134.918c-245.167,53.457-520.972,259.887-310.318,509.117
			c179.593,212.685,465.042,320.374,738.354,330.559c255.584,9.487,541.705-46.468,769.528-163.414
			c153.963-79.093,257.427-166.08,360.854-277.033C5395.514,5290.327,5291.116,5300.942,5192.847,5296.75z"/>
		<path class="st1" d="M1876.146,5296.75c265.813-10.984,417.607-151.664,618.78-300.631
			c173.898-128.863,429.395-180.788,639.512-134.918c245.043,53.457,520.835,259.887,310.281,509.117
			c-179.556,212.685-465.178,320.374-738.342,330.559c-255.559,9.487-541.743-46.468-769.442-163.414
			c-154.063-79.093-257.625-166.08-361.016-277.033C1673.354,5290.327,1777.753,5300.942,1876.146,5296.75z"/>
	</g>
</g>
<g>
	<path class="st1" d="M5578.552,4044.217c84.2-250.181-402.039-637.482-602.052-604.231
		c-363.837,63.016-1993.76-638.698-2121.872-1346.75c-788.554-397.883-931.438-28.047-931.438-28.047
		c-414.876,805.157,1400.23,1694.038,1400.23,1694.038C5380.383,4810.758,5578.552,4044.217,5578.552,4044.217z"/>
	<path class="st1" d="M4983.73,3249.85c504.475-1116.602,109.326-1330.118,109.326-1330.118
		c-140.565-161.262-440.202-91.113-440.202-91.113c-451.337-595.533-785.941-585.459-785.941-585.459
		c-395.325-16.012-733.318,468.467-882.982,722.858C3185.8,2638.764,4429.909,3182.8,4983.73,3249.85z"/>
</g>
<path class="st1" d="M2721.253,3238.365c-347.995,0-634.985,258.051-682.007,593.081H1634.23v1112.643h191.897l4.755-922.585
	h207.929c45.785,336.419,333.46,595.917,682.441,595.917c380.816,0,689.528-308.71,689.528-689.528
	C3410.781,3547.077,3102.069,3238.365,2721.253,3238.365z M2721.253,4427.226c-275.772,0-499.333-223.557-499.333-499.333
	c0-275.772,223.561-499.333,499.333-499.333c275.776,0,499.333,223.561,499.333,499.333
	C3220.586,4203.669,2997.029,4427.226,2721.253,4427.226z"/>
<circle class="st1" cx="2721.254" cy="3927.894" r="121.062"/>
</svg>
